Coordinates
version=1
nRows=26
nColumns=22
inDegrees=yes

Units are S.I. units (second, meters, Newtons, ...)
If the header above contains a line with 'inDegrees', this indicates whether rotational values are in degrees (yes) or radians (no).

endheader
time	pelvis_tilt	pelvis_list	pelvis_rotation	pelvis_tx	pelvis_ty	pelvis_tz	hip_flexion_r	hip_adduction_r	hip_rotation_r	knee_angle_r	ankle_angle_r	subtalar_angle_r	hip_flexion_l	hip_adduction_l	hip_rotation_l	knee_angle_l	ankle_angle_l	subtalar_angle_l	lumbar_extension	lumbar_bending	lumbar_rotation
      7.11000000	     -0.62369910	     -0.66945167	   -116.07300105	      0.78187349	      1.00839829	      0.28049873	     11.59169827	     -2.50151453	     -4.18654724	    -53.77653250	      5.79082736	     -3.20987548	     10.82831582	      0.26023604	      0.94610196	    -17.32972271	      7.79404567	      3.75498900	    -13.72992950	     -2.50564406	      2.10864785
      7.12000000	     -0.71335033	     -0.63100085	   -116.50496538	      0.78086314	      1.00912207	      0.28495633	     12.09354563	     -2.29237199	     -4.62721954	    -52.85861786	      6.43486698	     -2.83772626	     10.30660551	      0.17257380	      0.50402181	    -16.97991205	      8.00537093	      3.70267143	    -13.82667421	     -2.47438322	      1.99383326
      7.13000000	     -0.79033192	     -0.58493777	   -116.95122216	      0.77974961	      1.00978012	      0.28928047	     12.59275213	     -2.05657868	     -5.01079011	    -51.84051116	      7.05410386	     -2.31884286	      9.78764255	      0.08938208	      0.05092576	    -16.60546357	      8.19263941	      3.65290318	    -13.91733888	     -2.46166881	      1.87163161
      7.14000000	     -0.84126035	     -0.52406702	   -117.40001928	      0.77860888	      1.01031803	      0.29349524	     13.11183162	     -1.83913790	     -5.40172888	    -50.75521817	      7.67556779	     -1.80247339	      9.30364160	      0.02408036	     -0.43006194	    -16.23786210	      8.39191897	      3.60402874	    -13.99003418	     -2.46884000	      1.77988965
      7.15000000	     -0.86523183	     -0.45484247	   -117.85424372	      0.77744829	      1.01076334	      0.29763030	     13.64351032	     -1.64343905	     -5.77976346	    -49.61211274	      8.28259224	     -1.27325075	      8.83400107	     -0.01462375	     -0.90200768	    -15.85165479	      8.56146823	      3.54837672	    -14.04702373	     -2.48977531	      1.66974464
      7.16000000	     -0.86149058	     -0.37904878	   -118.31392777	      0.77626482	      1.01109757	      0.30170278	     14.19130843	     -1.49207257	     -6.19360404	    -48.43453725	      8.88207846	     -0.85749186	      8.38864890	     -0.02729494	     -1.39182758	    -15.46844613	      8.73860366	      3.48414997	    -14.08752385	     -2.53177188	      1.58074344
      7.17000000	     -0.83785083	     -0.30436950	   -118.78197916	      0.77505074	      1.01136323	      0.30573796	     14.73843003	     -1.37694643	     -6.62805814	    -47.22064868	      9.45326985	     -0.53076615	      7.94634343	     -0.01477375	     -1.87923646	    -15.07163425	      8.89632637	      3.40538085	    -14.11908589	     -2.58549106	      1.48874619
      7.18000000	     -0.78807458	     -0.20125407	   -119.22997436	      0.77386530	      1.01150254	      0.30974855	     15.31621409	     -1.30413062	     -7.13646210	    -45.98326461	     10.00411617	     -0.43152464	      7.56107800	      0.01827427	     -2.32764917	    -14.69729418	      9.04492672	      3.35488242	    -14.11122514	     -2.63171584	      1.37878293
      7.19000000	     -0.74822242	     -0.17434937	   -119.74635992	      0.77254556	      1.01171016	      0.31374257	     15.81434925	     -1.26846632	     -7.62037443	    -44.72915456	     10.46855134	     -0.27263739	      7.07086139	      0.07828337	     -2.87607240	    -14.28420011	      9.22058690	      3.21616754	    -14.17988577	     -2.71441384	      1.34257707
      7.20000000	     -0.69151096	     -0.08929357	   -120.20649713	      0.77128751	      1.01176956	      0.31771719	     16.35616310	     -1.24913924	     -8.20815593	    -43.44797561	     10.92872907	     -0.25947482	      6.68001863	      0.13753284	     -3.33149815	    -13.91985076	      9.35960324	      3.13712068	    -14.18368400	     -2.75630676	      1.24527203
      7.21000000	     -0.66859244	     -0.08448834	   -120.71355061	      0.76989124	      1.01193013	      0.32166653	     16.79274567	     -1.23485776	     -8.78291196	    -42.14047235	     11.27309499	     -0.34100859	      6.17070976	      0.20746291	     -3.85145086	    -13.51585342	      9.53238726	      2.93874271	    -14.28658856	     -2.81538927	      1.19933200
      7.22000000	     -0.64132590	     -0.04561334	   -121.18805546	      0.76848220	      1.01198836	      0.32557388	     17.24861735	     -1.21496941	     -9.41974310	    -40.81630626	     11.57883032	     -0.46941864	      5.72894401	      0.26873364	     -4.32493174	    -13.16291531	      9.70077137	      2.77564025	    -14.35505669	     -2.84793798	      1.12332544
      7.23000000	     -0.62564167	     -0.00866235	   -121.66267665	      0.76699911	      1.01201866	      0.32944024	     17.68386023	     -1.17501011	    -10.06921152	    -39.47514414	     11.79423819	     -0.62413832	      5.29290682	      0.32163277	     -4.79872066	    -12.83326277	      9.86930648	      2.61042798	    -14.43220514	     -2.86626612	      1.06395629
      7.24000000	     -0.61670140	      0.03825568	   -122.12894959	      0.76543395	      1.01200204	      0.33324349	     18.11449669	     -1.10256071	    -10.71342895	    -38.12515988	     11.93425603	     -0.75765473	      4.88349057	      0.36114432	     -5.26588117	    -12.53829330	     10.04736382	      2.46652925	    -14.50727652	     -2.87434917	      1.00761122
      7.25000000	     -0.61740415	      0.09539742	   -122.59079345	      0.76378590	      1.01194459	      0.33699159	     18.53672976	     -0.98776970	    -11.33020089	    -36.76433835	     11.99320367	     -0.85476790	      4.49896844	      0.38422765	     -5.72759977	    -12.28108288	     10.23772350	      2.34609082	    -14.57905196	     -2.86585166	      0.95583310
      7.26000000	     -0.63611470	      0.15412367	   -123.04740630	      0.76204349	      1.01187390	      0.34067767	     18.93549268	     -0.82351207	    -11.90737852	    -35.39207062	     11.95637268	     -0.92418404	      4.12302267	      0.38745109	     -6.17396201	    -12.05708302	     10.44356300	      2.23610891	    -14.66460292	     -2.84207593	      0.91897860
      7.27000000	     -0.65612305	      0.24134846	   -123.49224435	      0.76023868	      1.01173376	      0.34430216	     19.34848336	     -0.61578359	    -12.45269327	    -34.01945613	     11.83989011	     -0.92678547	      3.80628335	      0.36930078	     -6.61466977	    -11.89489544	     10.63737844	      2.15685183	    -14.72408264	     -2.79699340	      0.89765270
      7.28000000	     -0.72206725	      0.28973339	   -123.94465659	      0.75829783	      1.01166410	      0.34787665	     19.67202808	     -0.34123587	    -12.89068989	    -32.62016318	     11.62491463	     -0.92058721	      3.41999872	      0.33141283	     -7.04117036	    -11.72532468	     10.90364932	      2.04994000	    -14.85179832	     -2.73617739	      0.85695471
      7.29000000	     -0.75981682	      0.39789750	   -124.37250624	      0.75632801	      1.01146205	      0.35138563	     20.05894525	     -0.04503601	    -13.31396858	    -31.23606696	     11.29153197	     -0.85010207	      3.14830722	      0.27789657	     -7.45930182	    -11.63060362	     11.10917421	      1.98003808	    -14.90600717	     -2.66071124	      0.83337785
      7.30000000	     -0.84010871	      0.46346120	   -124.81228948	      0.75423627	      1.01131241	      0.35489658	     20.35122042	      0.29793262	    -13.63842129	    -29.83710934	     10.93117999	     -0.75531347	      2.80718156	      0.21115453	     -7.89181723	    -11.53865908	     11.40205028	      1.88568547	    -15.01967712	     -2.56665456	      0.79604072
      7.31000000	     -0.90718484	      0.53741995	   -125.23752809	      0.75210073	      1.01111523	      0.35840188	     20.64455566	      0.63820896	    -13.94551759	    -28.45700730	     10.47066228	     -0.65024078	      2.49433793	      0.15114732	     -8.31762407	    -11.47028851	     11.64777007	      1.80195242	    -15.11266181	     -2.47165249	      0.76041112
      7.32000000	     -0.97052747	      0.59834186	   -125.65839126	      0.74990294	      1.01089200	      0.36192960	     20.91074006	      0.97183397	    -14.22361165	    -27.09865222	      9.97185456	     -0.55099998	      2.17460522	      0.10335091	     -8.75070994	    -11.41233047	     11.89405105	      1.71927485	    -15.20589999	     -2.37904715	      0.71395648
      7.33000000	     -1.02304633	      0.64409906	   -126.07500323	      0.74766092	      1.01064051	      0.36550078	     21.15437405	      1.28170627	    -14.49826370	    -25.77218343	      9.44774596	     -0.46584374	      1.85128925	      0.07786162	     -9.18511271	    -11.36745555	     12.13416890	      1.63642532	    -15.29484464	     -2.29225972	      0.66137788
      7.34000000	     -1.06705502	      0.66934365	   -126.48800623	      0.74536461	      1.01036285	      0.36912698	     21.37225736	      1.55934314	    -14.79834298	    -24.49072129	      8.93911766	     -0.39736659	      1.51001943	      0.07642089	     -9.62396247	    -11.31984615	     12.37512153	      1.54902027	    -15.38531926	     -2.21769599	      0.60136354
      7.35000000	     -1.09270510	      0.68541312	   -126.89347217	      0.74301729	      1.01003613	      0.37281271	     21.58561505	      1.79648179	    -15.15236333	    -23.26696414	      8.45162163	     -0.34060511	      1.16981695	      0.10044885	    -10.05756715	    -11.27466740	     12.61353669	      1.46243761	    -15.45812678	     -2.15790557	      0.53695117
      7.36000000	     -1.11355409	      0.67609538	   -127.29502883	      0.74061062	      1.00968709	      0.37658700	     21.77049354	      1.99170324	    -15.58192059	    -22.10657024	      8.01369234	     -0.29426098	      0.80227104	      0.15077955	    -10.48650867	    -11.22478454	     12.85483716	      1.37332782	    -15.53476451	     -2.10793048	      0.47177964
